<?xml version="1.0" standalone="no"?>
<!DOCTYPE svg PUBLIC "-//W3C//DTD SVG 1.1//EN" "http://www.w3.org/Graphics/SVG/1.1/DTD/svg11.dtd" >
<svg xmlns="http://www.w3.org/2000/svg">
<metadata>Generated by IcoMoon</metadata>
<defs>
<font id="Fg-Functional" horiz-adv-x="1024">
<font-face units-per-em="1024" ascent="960" descent="-64" />
<missing-glyph horiz-adv-x="1024" />
<glyph unicode="&#x20;" horiz-adv-x="512" d="" />
<glyph unicode="&#xe600;" glyph-name="arrow-down" d="M1010.347 741.547l-491.52-589.824-491.52 589.824z" />
<glyph unicode="&#xe601;" glyph-name="arrow-up" d="M20.48 154.453l491.52 589.824 491.52-589.824z" />
<glyph unicode="&#xe602;" glyph-name="arrow-left" d="M708.608-43.52l53.248 47.787-402.773 443.733 402.773 443.733-53.248 47.787-446.464-491.52z" />
<glyph unicode="&#xe603;" glyph-name="arrow-right" d="M315.392-43.52l-53.248 47.787 402.773 443.733-402.773 443.733 53.248 47.787 446.464-491.52z" />
<glyph unicode="&#xe604;" glyph-name="close-large" d="M512 486.229l415.061 453.291h60.075l-445.099-481.963 461.483-501.077h-58.709l-432.811 473.771-434.176-473.771h-57.344l461.483 501.077-445.099 481.963h60.075l415.061-453.291z" />
<glyph unicode="&#xe605;" glyph-name="close-small" d="M712.704 446.635l251.221 251.221c54.613 54.613 54.613 143.36 0 197.973s-143.36 54.613-197.973 0l-251.221-249.856-252.587 251.221c-54.613 54.613-143.36 54.613-197.973 0s-54.613-143.36 0-197.973l251.221-251.221-251.221-252.587c-54.613-54.613-54.613-143.36 0-197.973 27.307-27.307 62.805-40.96 99.669-40.96s72.363 13.653 99.669 40.96l251.221 251.221 251.221-251.221c27.307-27.307 62.805-40.96 99.669-40.96s72.363 13.653 99.669 40.96c54.613 54.613 54.613 143.36 0 197.973l-252.587 251.221z" />
<glyph unicode="&#xe606;" glyph-name="wishdeck-nocounter" d="M529.749 5.632c-5.461 0-12.288 0-17.749 0-244.395 0-442.368 197.973-442.368 442.368s197.973 442.368 442.368 442.368c244.395 0 442.368-197.973 442.368-442.368 0-5.461 0-12.288 0-17.749 16.384-2.731 32.768-6.827 49.152-12.288 0 9.557 1.365 20.48 1.365 30.037 0 271.701-219.819 491.52-491.52 491.52s-491.52-219.819-491.52-491.52 219.819-491.52 491.52-491.52c9.557 0 20.48 0 30.037 1.365-6.827 15.019-10.923 31.403-13.653 47.787zM791.893 605.013h-363.179c-12.288 0-23.211 1.365-23.211 13.653s9.557 13.653 23.211 13.653h363.179c12.288 0 23.211-1.365 23.211-13.653s-10.923-13.653-23.211-13.653zM791.893 427.52h-363.179c-12.288 0-23.211 1.365-23.211 13.653s9.557 13.653 23.211 13.653h363.179c12.288 0 23.211-1.365 23.211-13.653s-10.923-13.653-23.211-13.653zM576.171 277.333h-155.648c-12.288 0-23.211-8.192-23.211-20.48s9.557-20.48 23.211-20.48h136.533c5.461 13.653 12.288 27.307 19.115 40.96zM271.701 598.187c-9.557 0-17.749 4.096-24.576 9.557-6.827 6.827-9.557 15.019-9.557 24.576s4.096 17.749 9.557 24.576c12.288 12.288 35.499 12.288 47.787 0 6.827-6.827 9.557-15.019 9.557-24.576s-4.096-17.749-9.557-24.576c-5.461-5.461-15.019-9.557-23.211-9.557zM271.701 401.579c-9.557 0-17.749 4.096-24.576 9.557s-9.557 15.019-9.557 24.576c0 8.192 4.096 17.749 9.557 24.576 12.288 12.288 35.499 12.288 47.787 0 6.827-6.827 9.557-15.019 9.557-24.576s-4.096-17.749-9.557-24.576c-5.461-5.461-15.019-9.557-23.211-9.557zM271.701 204.971c-9.557 0-17.749 4.096-24.576 9.557-6.827 6.827-9.557 15.019-9.557 24.576s4.096 17.749 9.557 24.576c13.653 13.653 35.499 12.288 47.787 0 6.827-6.827 9.557-15.019 9.557-24.576s-4.096-17.749-9.557-24.576c-5.461-5.461-15.019-9.557-23.211-9.557z" />
<glyph unicode="&#xe607;" glyph-name="wishdeck-counter" d="M436.907 898.56c203.435 0 368.64-165.205 368.64-368.64s-165.205-368.64-368.64-368.64-368.64 165.205-368.64 368.64 165.205 368.64 368.64 368.64zM436.907 939.52c-226.645 0-409.6-182.955-409.6-409.6s182.955-409.6 409.6-409.6c226.645 0 409.6 182.955 409.6 409.6s-182.955 409.6-409.6 409.6v0zM670.379 659.627h-303.104c-10.923 0-19.115 2.731-19.115 13.653s8.192 13.653 19.115 13.653h303.104c10.923 0 19.115-2.731 19.115-13.653s-9.557-13.653-19.115-13.653zM670.379 509.44h-303.104c-10.923 0-19.115 2.731-19.115 13.653s8.192 13.653 19.115 13.653h303.104c10.923 0 19.115-2.731 19.115-13.653s-9.557-13.653-19.115-13.653zM663.552 359.253h-303.104c-10.923 0-19.115 2.731-19.115 13.653s8.192 13.653 19.115 13.653h303.104c10.923 0 19.115-2.731 19.115-13.653s-9.557-13.653-19.115-13.653zM236.203 655.531c-8.192 0-15.019 2.731-20.48 8.192s-8.192 12.288-8.192 20.48c0 8.192 2.731 15.019 8.192 20.48 10.923 10.923 30.037 10.923 39.595 0 5.461-5.461 8.192-12.288 8.192-20.48s-2.731-15.019-8.192-20.48c-4.096-5.461-10.923-8.192-19.115-8.192zM236.203 491.691c-8.192 0-15.019 2.731-20.48 8.192s-8.192 12.288-8.192 20.48c0 6.827 2.731 15.019 8.192 20.48 10.923 9.557 30.037 10.923 39.595 0 5.461-5.461 8.192-12.288 8.192-20.48s-2.731-15.019-8.192-20.48c-4.096-5.461-10.923-8.192-19.115-8.192zM236.203 327.851c-8.192 0-15.019 2.731-20.48 8.192s-8.192 12.288-8.192 20.48c0 8.192 2.731 15.019 8.192 20.48 10.923 10.923 30.037 10.923 39.595 0 5.461-5.461 8.192-12.288 8.192-20.48s-2.731-15.019-8.192-20.48c-4.096-5.461-10.923-8.192-19.115-8.192zM1010.347 218.624c0-144.778-117.366-262.144-262.144-262.144s-262.144 117.366-262.144 262.144c0 144.778 117.366 262.144 262.144 262.144s262.144-117.366 262.144-262.144z" />
<glyph unicode="&#xe608;" glyph-name="message-conversation" d="M531.115 920.405c-260.779 0-472.405-211.627-472.405-472.405 0-54.613 9.557-107.861 27.307-159.744l-57.344-158.379c-16.384-46.421-2.731-77.824 8.192-92.843 16.384-23.211 40.96-35.499 70.997-35.499 13.653 0 28.672 2.731 43.691 8.192l116.053 45.056c77.824-53.248 170.667-81.92 264.875-81.92 260.779 0 472.405 211.627 472.405 472.405-1.365 263.509-212.992 475.136-473.771 475.136zM531.115 19.285c-94.208 0-184.32 30.037-258.048 87.381l-137.899-54.613c-9.557-4.096-19.115-5.461-27.307-5.461-15.019 0-27.307 5.461-34.133 16.384-6.827 9.557-12.288 25.941-2.731 51.883l64.171 173.397c-20.48 50.517-30.037 103.765-30.037 159.744 0 236.203 192.512 428.715 428.715 428.715s428.715-192.512 428.715-428.715c-2.731-236.203-195.243-428.715-431.445-428.715zM400.043 448c0-28.654-23.229-51.883-51.883-51.883s-51.883 23.229-51.883 51.883c0 28.654 23.229 51.883 51.883 51.883s51.883-23.229 51.883-51.883zM592.555 448c0-28.654-23.229-51.883-51.883-51.883s-51.883 23.229-51.883 51.883c0 28.654 23.229 51.883 51.883 51.883s51.883-23.229 51.883-51.883zM786.432 448c0-28.654-23.229-51.883-51.883-51.883s-51.883 23.229-51.883 51.883c0 28.654 23.229 51.883 51.883 51.883s51.883-23.229 51.883-51.883z" />
<glyph unicode="&#xe609;" glyph-name="search" d="M703.147 297.813c64.171 68.267 105.131 159.744 105.131 259.413 0 210.261-176.128 382.293-394.581 382.293s-393.216-172.032-393.216-382.293 176.128-382.293 394.581-382.293c88.747 0 169.301 28.672 236.203 76.459l293.547-283.989c6.827-6.827 16.384-10.923 24.576-10.923 9.557 0 17.749 4.096 24.576 10.923 13.653 13.653 13.653 35.499 0 49.152l-290.816 281.259zM91.477 557.227c0 172.032 144.725 312.661 322.219 312.661s322.219-140.629 322.219-312.661-143.36-312.661-320.853-312.661-323.584 140.629-323.584 312.661z" />
<glyph unicode="&#xe60a;" glyph-name="addservice" d="M20.48 482.133h983.040v-68.267h-983.040v68.267zM477.867 939.52h68.267v-983.040h-68.267v983.040z" />
<glyph unicode="&#xe60b;" glyph-name="vendor-add" d="M598.016 43.861c0-50.517-36.864-87.381-87.381-87.381s-87.381 36.864-87.381 87.381l-2.731 316.757h-314.027c-49.152 0-87.381 36.864-87.381 87.381s36.864 87.381 87.381 87.381h314.027v319.488c0 45.056 39.595 84.651 90.112 84.651s87.381-36.864 87.381-87.381v-314.027h318.123c49.152 0 87.381-36.864 87.381-87.381s-36.864-87.381-87.381-87.381l-320.853-2.731 2.731-316.757z" />
<glyph unicode="&#xe60c;" glyph-name="vendor-remove" d="M969.387 153.088c46.421-46.421 46.421-116.053 0-161.109s-116.053-46.421-162.475 0l-296.277 289.451-292.181-290.816c-46.421-46.421-116.053-46.421-162.475 0s-46.421 116.053 0 161.109l292.181 290.816-296.277 296.277c-42.325 40.96-42.325 116.053 4.096 161.109s116.053 46.421 162.475 0l292.181-290.816 296.277 296.277c46.421 46.421 116.053 46.421 162.475 0s46.421-116.053 0-161.109l-296.277-300.373 296.277-290.816z" />
<glyph unicode="&#xe60d;" glyph-name="calender" d="M902.485 852.139h-786.432c-54.613 0-95.573-40.96-95.573-95.573v-610.304c0-54.613 40.96-95.573 95.573-95.573h793.259c54.613 0 95.573 40.96 95.573 95.573v610.304c-8.192 54.613-49.152 95.573-102.4 95.573zM969.387 146.261c0-40.96-34.133-68.267-68.267-68.267h-785.067c-40.96 0-68.267 27.307-68.267 68.267v481.963h921.6v-481.963zM969.387 655.531h-921.6v101.035c0 40.96 34.133 68.267 68.267 68.267h793.259c40.96 0 68.267-27.307 68.267-68.267v-101.035h-8.192zM895.659 491.691c0-26.392-21.395-47.787-47.787-47.787s-47.787 21.395-47.787 47.787c0 26.392 21.395 47.787 47.787 47.787s47.787-21.395 47.787-47.787zM726.357 491.691c0-26.392-21.395-47.787-47.787-47.787s-47.787 21.395-47.787 47.787c0 26.392 21.395 47.787 47.787 47.787s47.787-21.395 47.787-47.787zM557.056 491.691c0-26.392-21.395-47.787-47.787-47.787s-47.787 21.395-47.787 47.787c0 26.392 21.395 47.787 47.787 47.787s47.787-21.395 47.787-47.787zM386.389 491.691c0-26.392-21.395-47.787-47.787-47.787s-47.787 21.395-47.787 47.787c0 26.392 21.395 47.787 47.787 47.787s47.787-21.395 47.787-47.787zM557.056 173.568c0-26.392-21.395-47.787-47.787-47.787s-47.787 21.395-47.787 47.787c0 26.392 21.395 47.787 47.787 47.787s47.787-21.395 47.787-47.787zM386.389 173.568c0-26.392-21.395-47.787-47.787-47.787s-47.787 21.395-47.787 47.787c0 26.392 21.395 47.787 47.787 47.787s47.787-21.395 47.787-47.787zM217.088 173.568c0-26.392-21.395-47.787-47.787-47.787s-47.787 21.395-47.787 47.787c0 26.392 21.395 47.787 47.787 47.787s47.787-21.395 47.787-47.787zM895.659 349.696c0-26.392-21.395-47.787-47.787-47.787s-47.787 21.395-47.787 47.787c0 26.392 21.395 47.787 47.787 47.787s47.787-21.395 47.787-47.787zM726.357 349.696c0-26.392-21.395-47.787-47.787-47.787s-47.787 21.395-47.787 47.787c0 26.392 21.395 47.787 47.787 47.787s47.787-21.395 47.787-47.787zM557.056 349.696c0-26.392-21.395-47.787-47.787-47.787s-47.787 21.395-47.787 47.787c0 26.392 21.395 47.787 47.787 47.787s47.787-21.395 47.787-47.787zM386.389 349.696c0-26.392-21.395-47.787-47.787-47.787s-47.787 21.395-47.787 47.787c0 26.392 21.395 47.787 47.787 47.787s47.787-21.395 47.787-47.787zM217.088 349.696c0-26.392-21.395-47.787-47.787-47.787s-47.787 21.395-47.787 47.787c0 26.392 21.395 47.787 47.787 47.787s47.787-21.395 47.787-47.787z" />
<glyph unicode="&#xe60e;" glyph-name="map-pin" d="M514.731 643.243c-43.691 0-79.189-35.499-79.189-79.189s35.499-79.189 79.189-79.189c43.691 0 79.189 35.499 79.189 79.189s-35.499 79.189-79.189 79.189zM514.731 939.52c-191.147 0-346.795-155.648-346.795-346.795 0-177.493 282.624-566.613 315.392-610.304l12.288-16.384c4.096-6.827 12.288-9.557 19.115-9.557 8.192 0 15.019 4.096 19.115 9.557l12.288 16.384c31.403 43.691 314.027 434.176 314.027 610.304 0 191.147-154.283 346.795-345.429 346.795zM514.731 422.059c-77.824 0-141.995 64.171-141.995 141.995s64.171 141.995 141.995 141.995c77.824 0 141.995-64.171 141.995-141.995s-64.171-141.995-141.995-141.995z" />
<glyph unicode="&#xe60f;" glyph-name="helptip" d="M420.523 269.141c0 28.672 1.365 53.248 4.096 76.459 2.731 21.845 8.192 42.325 16.384 61.44s17.749 36.864 30.037 51.883c12.288 16.384 27.307 32.768 45.056 49.152 13.653 12.288 27.307 24.576 39.595 36.864s23.211 23.211 31.403 35.499c8.192 12.288 15.019 24.576 20.48 38.229s6.827 27.307 6.827 42.325c0 35.499-8.192 61.44-24.576 79.189s-40.96 25.941-72.363 25.941c-13.653 0-25.941-1.365-38.229-5.461s-23.211-10.923-32.768-19.115c-9.557-8.192-17.749-20.48-23.211-34.133s-9.557-30.037-9.557-49.152h-182.955c0 43.691 8.192 81.92 23.211 113.323s35.499 58.709 61.44 79.189c25.941 20.48 55.979 36.864 90.112 46.421s70.997 15.019 110.592 15.019c43.691 0 83.285-5.461 117.419-16.384s64.171-25.941 87.381-47.787c23.211-20.48 42.325-46.421 54.613-76.459s19.115-65.536 19.115-105.131c0-27.307-4.096-51.883-12.288-75.093-8.192-21.845-19.115-42.325-34.133-62.805-13.653-19.115-30.037-38.229-49.152-57.344-17.749-17.749-38.229-36.864-58.709-55.979-12.288-10.923-21.845-21.845-28.672-32.768-8.192-10.923-13.653-21.845-19.115-34.133s-8.192-24.576-9.557-38.229c-1.365-13.653-2.731-28.672-4.096-45.056h-158.379zM401.408 76.629c0 13.653 2.731 25.941 6.827 38.229s10.923 21.845 20.48 30.037c8.192 8.192 19.115 15.019 31.403 20.48s25.941 6.827 42.325 6.827c15.019 0 30.037-2.731 42.325-6.827 12.288-5.461 23.211-12.288 31.403-20.48s15.019-19.115 20.48-30.037c5.461-12.288 6.827-24.576 6.827-38.229s-2.731-25.941-6.827-38.229c-5.461-12.288-10.923-21.845-20.48-30.037-8.192-8.192-19.115-15.019-31.403-20.48s-25.941-6.827-42.325-6.827c-15.019 0-30.037 2.731-42.325 6.827-12.288 5.461-23.211 10.923-31.403 20.48-8.192 8.192-15.019 19.115-20.48 30.037s-6.827 24.576-6.827 38.229z" />
<glyph unicode="&#xe610;" d="M866.987 878.080h-705.877c-49.152 0-92.843-42.325-92.843-91.477v-842.411l180.224 223.915h618.496c49.152 0 88.747 39.595 88.747 88.747v529.749c0 49.152-39.595 91.477-88.747 91.477zM613.035 439.808l-98.304 62.805-98.304-62.805 25.941 118.784-87.381 79.189 114.688 10.923 45.056 111.957 45.056-111.957 114.688-10.923-87.381-80.555 25.941-117.419z" />
<glyph unicode="&#xe611;" d="M866.987 932.693h-705.877c-49.152 0-92.843-46.421-92.843-94.208v-842.411l180.224 226.645h618.496c49.152 0 88.747 36.864 88.747 86.016v529.749c0 47.787-39.595 94.208-88.747 94.208zM613.035 439.808l-98.304 62.805-98.304-62.805 25.941 118.784-87.381 79.189 114.688 10.923 45.056 111.957 45.056-111.957 114.688-10.923-87.381-80.555 25.941-117.419z" />
<glyph unicode="&#xe612;" glyph-name="review-star" d="M517.461 934.059l137.899-344.064 353.621-31.403-268.971-244.395 80.555-363.179-303.104 192.512-304.469-192.512 80.555 363.179-267.605 244.395 353.621 31.403z" />
<glyph unicode="&#xe613;" glyph-name="vendor-loader" d="M729.088 493.056c-1.365 4.096-1.365 9.557 0 13.653l23.211 53.248c4.096 9.557 4.096 20.48-2.731 30.037-5.461 9.557-16.384 13.653-27.307 13.653h-83.285c-10.923 0-20.48-5.461-27.307-13.653-5.461-9.557-6.827-20.48-2.731-30.037l23.211-53.248c1.365-4.096 1.365-9.557 0-13.653l-23.211-53.248c-4.096-9.557-4.096-17.749 2.731-27.307 5.461-9.557 16.384-10.923 27.307-10.923h84.651c10.923 0 20.48 2.731 27.307 10.923 5.461 9.557 6.827 19.115 2.731 28.672l-24.576 51.883zM733.184 420.693c-4.096-4.096-9.557-6.827-15.019-6.827h-73.728c-5.461 0-10.923 2.731-15.019 6.827v0c-2.731 5.461-4.096 10.923-1.365 16.384l21.845 49.152c4.096 9.557 4.096 19.115 0 28.672l-21.845 47.787c-2.731 5.461-1.365 13.653 1.365 17.749 2.731 5.461 8.192 9.557 15.019 9.557h73.728c5.461 0 10.923-4.096 15.019-9.557 2.731-5.461 4.096-12.288 1.365-17.749l-21.845-49.152c-4.096-9.557-4.096-19.115 0-28.672l21.845-49.152c1.365-4.096 1.365-9.557-1.365-15.019zM669.013 449.365c6.827 6.827 17.749 6.827 24.576 0l24.576-24.576c0 0 0-1.365 0-1.365s-1.365-1.365-1.365-1.365h-70.997c0 0-1.365 0-1.365 1.365 0 0 0 1.365 0 1.365l24.576 24.576zM798.72 837.12h-95.573l-95.573 95.573h-191.147l-95.573-95.573h-95.573c0 0-102.4 9.557-102.4-86.016v-286.72c0-95.573 102.4-105.131 102.4-105.131s135.168 0 275.797 0c38.229-54.613 103.765-91.477 178.859-91.477 92.843 0 174.763 61.44 204.8 143.36 13.653 24.576 16.384 53.248 16.384 53.248s0 191.147 0 286.72-102.4 86.016-102.4 86.016zM465.579 472.576c-55.979 19.115-96.939 72.363-96.939 135.168 0 79.189 64.171 143.36 143.36 143.36 46.421 0 86.016-21.845 111.957-54.613-91.477-24.576-159.744-109.227-159.744-208.896 0-5.461 0-9.557 1.365-15.019zM679.936 323.755c-91.477 0-163.84 73.728-165.205 165.205 0 91.477 73.728 163.84 165.205 165.205 91.477 0 163.84-73.728 165.205-165.205-1.365-91.477-75.093-165.205-165.205-165.205zM180.224 147.627l-4.096-4.096c-1.365-1.365-1.365-1.365-2.731-1.365-23.211 0-34.133-9.557-34.133-28.672v-4.096h16.384c1.365 0 2.731-1.365 4.096-2.731s1.365-2.731 1.365-4.096v-4.096c0-1.365 0-2.731-1.365-4.096s-2.731-1.365-4.096-1.365h-16.384v-84.651c0-4.096-2.731-6.827-6.827-6.827h-2.731c-4.096 0-6.827 2.731-6.827 6.827v84.651h-8.192c-4.096 0-6.827 2.731-6.827 6.827v4.096c0 1.365 0 2.731 1.365 4.096s2.731 2.731 4.096 2.731h9.557v2.731c0 31.403 16.384 46.421 50.517 46.421 4.096 0 6.827-2.731 6.827-6.827v-5.461zM282.624 58.88c0-4.096-2.731-6.827-6.827-6.827h-90.112c1.365-24.576 15.019-36.864 39.595-36.864 8.192 0 15.019 1.365 21.845 5.461s12.288 9.557 15.019 16.384v0c1.365 2.731 2.731 5.461 6.827 5.461h4.096c4.096 0 6.827-2.731 6.827-6.827v-1.365c-8.192-24.576-25.941-36.864-54.613-36.864-19.115 0-32.768 5.461-42.325 16.384s-13.653 25.941-13.653 45.056c0 17.749 5.461 32.768 15.019 43.691 10.923 12.288 24.576 17.749 42.325 17.749s31.403-5.461 42.325-15.019c10.923-10.923 15.019-24.576 15.019-42.325v-4.096zM263.509 68.437c-1.365 9.557-4.096 17.749-9.557 23.211-6.827 6.827-16.384 10.923-28.672 10.923-10.923 0-19.115-2.731-27.307-9.557-6.827-6.827-10.923-15.019-12.288-24.576h77.824zM400.043 58.88c0-4.096-2.731-6.827-6.827-6.827h-90.112c1.365-24.576 15.019-36.864 39.595-36.864 8.192 0 15.019 1.365 21.845 5.461s12.288 9.557 15.019 16.384v0c1.365 2.731 2.731 5.461 6.827 5.461h4.096c4.096 0 6.827-2.731 6.827-6.827v-1.365c-8.192-24.576-25.941-36.864-54.613-36.864-19.115 0-32.768 5.461-42.325 16.384s-13.653 25.941-13.653 45.056c0 17.749 5.461 32.768 15.019 43.691 10.923 12.288 24.576 17.749 42.325 17.749s31.403-5.461 42.325-15.019c10.923-10.923 15.019-24.576 15.019-42.325v-4.096zM380.928 68.437c-1.365 9.557-4.096 17.749-9.557 23.211-6.827 6.827-16.384 10.923-28.672 10.923-10.923 0-19.115-2.731-27.307-9.557-6.827-6.827-10.923-15.019-12.288-24.576h77.824zM421.888 6.997c0-1.365-1.365-2.731-2.731-4.096s-2.731-2.731-4.096-2.731h-2.731c-4.096 0-6.827 2.731-6.827 6.827v146.091c0 4.096 2.731 6.827 6.827 6.827h2.731c1.365 0 2.731-1.365 4.096-2.731s2.731-2.731 2.731-4.096v-146.091zM546.133 9.728c0-32.768-17.749-50.517-53.248-50.517-13.653 0-25.941 2.731-34.133 9.557-9.557 6.827-15.019 17.749-16.384 31.403 0 5.461 1.365 6.827 6.827 6.827h4.096c4.096 0 5.461-2.731 6.827-6.827 1.365-15.019 12.288-23.211 32.768-23.211 24.576 0 35.499 10.923 35.499 32.768v5.461c-10.923-9.557-23.211-13.653-38.229-13.653-16.384 0-30.037 5.461-40.96 17.749-9.557 10.923-13.653 25.941-13.653 43.691s5.461 32.768 15.019 43.691c9.557 10.923 23.211 17.749 40.96 17.749 15.019 0 27.307-5.461 36.864-15.019v5.461c0 1.365 0 2.731 1.365 4.096s2.731 1.365 4.096 1.365h4.096c4.096 0 6.827-2.731 6.827-6.827v-103.765zM528.384 61.611c0 12.288-4.096 21.845-10.923 31.403-6.827 8.192-16.384 13.653-27.307 13.653-12.288 0-20.48-4.096-27.307-12.288s-10.923-19.115-10.923-31.403c0-12.288 2.731-21.845 9.557-30.037s16.384-13.653 27.307-13.653c12.288 0 21.845 4.096 28.672 12.288 6.827 6.827 10.923 17.749 10.923 30.037zM674.475 58.88c0-19.115-5.461-32.768-16.384-45.056-10.923-10.923-24.576-16.384-43.691-16.384-17.749 0-32.768 5.461-43.691 17.749-10.923 10.923-15.019 25.941-15.019 43.691s5.461 32.768 16.384 45.056 24.576 17.749 42.325 17.749c17.749 0 31.403-5.461 42.325-17.749 12.288-12.288 17.749-25.941 17.749-45.056zM656.725 58.88c0 13.653-4.096 24.576-10.923 32.768s-17.749 12.288-30.037 12.288c-13.653 0-23.211-4.096-30.037-12.288s-10.923-19.115-10.923-32.768c0-13.653 4.096-23.211 10.923-31.403s17.749-12.288 30.037-12.288c13.653 0 23.211 4.096 31.403 12.288 6.827 8.192 9.557 17.749 9.557 31.403zM797.355 58.88c0-19.115-5.461-32.768-16.384-45.056-10.923-10.923-24.576-16.384-43.691-16.384-17.749 0-32.768 5.461-43.691 17.749-10.923 10.923-15.019 25.941-15.019 43.691s5.461 32.768 16.384 45.056 24.576 17.749 42.325 17.749c17.749 0 31.403-5.461 42.325-17.749 12.288-12.288 17.749-25.941 17.749-45.056zM779.605 58.88c0 13.653-4.096 24.576-10.923 32.768s-17.749 12.288-30.037 12.288c-13.653 0-23.211-4.096-30.037-12.288s-10.923-19.115-10.923-32.768c0-13.653 4.096-23.211 10.923-31.403s17.749-12.288 30.037-12.288c13.653 0 23.211 4.096 31.403 12.288 5.461 8.192 9.557 17.749 9.557 31.403zM914.773 6.997c0-4.096-2.731-6.827-6.827-6.827h-4.096c-4.096 0-6.827 2.731-6.827 6.827v6.827c-9.557-10.923-23.211-16.384-39.595-16.384-17.749 0-31.403 6.827-42.325 20.48-8.192 10.923-13.653 25.941-13.653 43.691s5.461 32.768 15.019 45.056c10.923 12.288 24.576 19.115 42.325 19.115 16.384 0 28.672-5.461 39.595-16.384v49.152c0 4.096 2.731 6.827 6.827 6.827h4.096c4.096 0 6.827-2.731 6.827-6.827v-151.552zM898.389 60.245c0 13.653-2.731 24.576-9.557 32.768s-16.384 13.653-30.037 13.653c-12.288 0-21.845-4.096-28.672-13.653-5.461-8.192-9.557-19.115-9.557-31.403s2.731-23.211 9.557-31.403c0 0 0 0 1.365-1.365 6.827-8.192 16.384-13.653 28.672-13.653s21.845 4.096 30.037 13.653c4.096 8.192 8.192 19.115 8.192 31.403z" />
<glyph unicode="&#xe614;" glyph-name="budget" d="M520.192 902.656c2.731 1.365 5.461 2.731 8.192 2.731 5.461 0 10.923-2.731 13.653-8.192l24.576-45.056-263.509-66.901 217.088 117.419zM416.427 741.547l374.101 91.477v-1.365c1.365 0 2.731 0 4.096 0 6.827 0 13.653-1.365 15.019-9.557l20.48-80.555h-413.696zM610.304 243.2v187.051c0 39.595 31.403 70.997 70.997 70.997h281.259v143.36c0 20.48-16.384 36.864-36.864 36.864h-858.795c-13.653 0-25.941-6.827-31.403-17.749-2.731-5.461-5.461-12.288-5.461-19.115v-615.765c0-20.48 16.384-36.864 36.864-36.864h857.429c20.48 0 36.864 16.384 36.864 36.864v143.36h-281.259c-38.229 0-69.632 31.403-69.632 70.997zM679.936 222.72c-8.192 0-10.923 10.923-10.923 20.48v187.051c0 8.192 2.731 24.576 10.923 24.576 0 0 294.912 0 294.912 0s0 0 0 0c2.731 0 8.192-5.461 10.923-6.827 5.461-2.731 10.923-12.288 10.923-17.749v-187.051c0-5.461-6.827-13.653-10.923-16.384-2.731-1.365-6.827-4.096-9.557-4.096 0 0-1.365 0-1.365 0v0h-294.912zM772.779 392.021c-30.037 0-54.613-24.576-54.613-54.613s24.576-54.613 54.613-54.613c30.037 0 54.613 24.576 54.613 54.613s-24.576 54.613-54.613 54.613z" />
<glyph unicode="&#xe615;" glyph-name="message-notification" d="M512-43.52c53.248 0 96.939 36.864 96.939 81.92h-193.877c0-45.056 43.691-81.92 96.939-81.92zM824.661 366.080v225.28c0 126.976-101.035 229.376-240.299 258.048v28.672c0 32.768-34.133 61.44-72.363 61.44s-72.363-28.672-72.363-61.44v-28.672c-139.264-28.672-240.299-131.072-240.299-258.048v-225.28l-96.939-81.92v-40.96h819.2v40.96l-96.939 81.92z" />
<glyph unicode="&#xe616;" glyph-name="fb_small" d="M273.067 614.571h102.4v99.669c0 43.691 1.365 110.592 32.768 152.917 32.768 43.691 79.189 73.728 158.379 73.728 128.341 0 181.589-17.749 181.589-17.749l-25.941-150.187c0 0-42.325 12.288-81.92 12.288s-75.093-13.653-75.093-53.248v-116.053h162.475l-10.923-148.821h-150.187v-510.635h-191.147v510.635h-102.4v147.456z" />
<glyph unicode="&#xe617;" glyph-name="flikr_small" d="M1003.52 449.365c0-120.149-98.304-218.453-219.819-218.453s-219.819 98.304-219.819 218.453c0 120.149 98.304 218.453 219.819 218.453s219.819-98.304 219.819-218.453zM240.299 667.819c-121.515 0-219.819-98.304-219.819-218.453s98.304-218.453 219.819-218.453c121.515 0 219.819 98.304 219.819 218.453 1.365 120.149-98.304 218.453-219.819 218.453z" />
<glyph unicode="&#xe618;" glyph-name="twitter_small" d="M891.563 483.499c54.613 4.096 92.843 30.037 106.496 64.171-20.48-12.288-81.92-25.941-116.053-12.288-1.365 8.192-4.096 15.019-5.461 23.211-24.576 94.208-113.323 170.667-207.531 162.475 8.192 2.731 15.019 5.461 23.211 8.192 10.923 4.096 70.997 13.653 61.44 34.133-8.192 19.115-81.92-13.653-95.573-17.749 17.749 6.827 49.152 19.115 51.883 39.595-28.672-4.096-55.979-17.749-76.459-36.864 8.192 8.192 13.653 17.749 15.019 28.672-75.093-47.787-118.784-143.36-154.283-237.568-27.307 27.307-51.883 47.787-75.093 60.075-61.44 32.768-136.533 68.267-252.587 110.592-4.096-38.229 19.115-90.112 84.651-124.245-13.653 1.365-39.595-2.731-60.075-6.827 8.192-43.691 35.499-80.555 110.592-98.304-34.133-2.731-51.883-9.557-66.901-25.941 15.019-30.037 53.248-66.901 121.515-58.709-75.093-32.768-31.403-92.843 30.037-83.285-105.131-107.861-270.336-99.669-364.544-9.557 245.76-337.237 783.701-199.339 864.256 125.611 60.075 0 95.573 20.48 117.419 43.691-34.133-5.461-84.651 0-111.957 10.923z" />
<glyph unicode="&#xe619;" glyph-name="google_small" d="M850.603 723.797l-1.365 152.917-61.44-1.365v-152.917h-154.283v-61.44h155.648l-1.365-155.648 62.805 2.731v154.283h152.917v61.44h-152.917zM574.805 875.349c0 0-199.339 0-264.875 0-118.784 0-230.741-90.112-230.741-193.877 0-106.496 80.555-192.512 202.069-192.512 8.192 0 16.384 0 24.576 1.365-8.192-15.019-10.923-35.499-10.923-53.248 0-30.037 13.653-50.517 34.133-69.632-15.019 0-31.403 1.365-47.787 1.365-147.456 0-259.413-95.573-259.413-192.512 0-95.573 124.245-155.648 271.701-155.648 167.936 0 260.779 95.573 260.779 191.147 0 76.459-23.211 122.88-92.843 172.032-24.576 16.384-69.632 58.709-69.632 81.92 0 28.672 8.192 42.325 50.517 76.459 43.691 34.133 75.093 81.92 75.093 137.899 0 66.901-30.037 132.437-86.016 152.917h84.651l58.709 42.325zM481.963 226.816c2.731-9.557 2.731-17.749 2.731-27.307 0-77.824-50.517-137.899-192.512-137.899-102.4 0-176.128 64.171-176.128 141.995 0 76.459 91.477 139.264 192.512 137.899 23.211 0 46.421-4.096 65.536-10.923 55.979-38.229 95.573-60.075 107.861-103.765zM318.123 516.267c-68.267 1.365-133.803 76.459-144.725 166.571-12.288 90.112 34.133 158.379 102.4 157.013s133.803-73.728 144.725-163.84-34.133-162.475-102.4-159.744z" />
<glyph unicode="&#xe61a;" glyph-name="sign-email" d="M512 303.275l491.52 245.76v-356.352c0-90.112-73.728-163.84-163.84-163.84h-655.36c-90.112 0-163.84 73.728-163.84 163.84v354.987l491.52-244.395zM20.48 727.893v0l491.52-245.76 491.52 245.76c0 76.459-62.805 139.264-139.264 139.264h-704.512c-76.459 0-139.264-61.44-139.264-139.264z" />
<glyph unicode="&#xe61b;" glyph-name="sign-username" d="M512 419.328c121.515 0 219.819 116.053 219.819 258.048 0 197.973-98.304 258.048-219.819 258.048s-219.819-60.075-219.819-258.048c0-143.36 98.304-258.048 219.819-258.048zM998.059 39.765l-110.592 249.856c-5.461 10.923-13.653 20.48-24.576 27.307l-172.032 90.112c-4.096 1.365-8.192 1.365-12.288-1.365-49.152-36.864-106.496-55.979-166.571-55.979s-117.419 19.115-166.571 55.979c-4.096 2.731-8.192 2.731-12.288 1.365l-172.032-90.112c-10.923-5.461-20.48-15.019-24.576-27.307l-110.592-249.856c-8.192-17.749-5.461-36.864 4.096-53.248 10.923-16.384 27.307-25.941 46.421-25.941h872.448c19.115 0 36.864 9.557 46.421 25.941 9.557 15.019 10.923 35.499 2.731 53.248z" />
<glyph unicode="&#xe61c;" glyph-name="sign-password" d="M847.872 592.725h-103.765v80.555c0 167.936-77.824 266.24-230.741 266.24s-232.107-98.304-232.107-266.24v-80.555h-116.053c-31.403 0-57.344-36.864-57.344-69.632v-450.56c0-31.403 24.576-65.536 54.613-75.093l69.632-21.845c30.037-9.557 80.555-17.749 113.323-17.749h335.872c31.403 0 81.92 8.192 113.323 17.749l69.632 21.845c30.037 9.557 54.613 43.691 54.613 75.093v450.56c-2.731 31.403-39.595 69.632-70.997 69.632zM395.947 696.491c0 83.285 46.421 126.976 116.053 126.976s116.053-43.691 116.053-126.976v-103.765h-232.107v103.765z" />
<glyph unicode="&#xe61d;" glyph-name="sign-phone" d="M46.421 198.144l200.704 118.784h1.365c6.827 4.096 16.384 6.827 28.672 6.827 16.384 0 31.403-5.461 43.691-16.384l58.709-60.075c1.365-1.365 4.096-2.731 6.827-4.096s5.461-1.365 6.827-1.365l13.653 2.731c8.192 1.365 20.48 6.827 36.864 15.019s36.864 21.845 61.44 39.595c24.576 17.749 51.883 42.325 83.285 75.093 31.403 31.403 55.979 58.709 73.728 83.285s30.037 43.691 38.229 61.44c9.557 19.115 16.384 35.499 19.115 50.517 0 2.731 0 4.096-1.365 8.192-1.365 2.731-2.731 5.461-4.096 6.827l-50.517 50.517c-9.557 9.557-15.019 20.48-17.749 32.768-2.731 13.653-1.365 25.941 5.461 36.864l111.957 211.627c5.461 8.192 10.923 13.653 17.749 19.115s15.019 8.192 24.576 8.192c12.288 0 23.211-5.461 32.768-15.019l137.899-137.899c6.827-6.827 12.288-15.019 17.749-24.576s8.192-20.48 9.557-30.037c0-1.365 0-8.192 1.365-20.48s-1.365-30.037-4.096-51.883-9.557-47.787-19.115-77.824c-9.557-30.037-24.576-64.171-43.691-101.035s-45.056-77.824-76.459-121.515c-31.403-43.691-72.363-90.112-120.149-137.899-61.44-61.44-118.784-110.592-173.397-146.091s-102.4-61.44-144.725-79.189c-42.325-17.749-79.189-28.672-107.861-32.768s-50.517-6.827-64.171-6.827c-5.461 0-9.557 0-13.653 0s-5.461 0-6.827 0c-9.557 1.365-19.115 4.096-30.037 9.557-9.557 5.461-17.749 10.923-24.576 17.749l-140.629 133.803c-12.288 12.288-16.384 25.941-15.019 40.96 2.731 15.019 12.288 25.941 25.941 35.499z" />
<glyph unicode="&#xe61e;" glyph-name="wishlist-pick" d="M797.355-50.347h-570.709c-51.883 0-90.112 49.152-90.112 107.861v516.096c0 45.056 23.211 110.592 64.171 143.36l240.299 197.973c39.595 32.768 106.496 32.768 146.091 0l237.568-197.973c40.96-32.768 62.805-98.304 62.805-143.36v-516.096c0-58.709-39.595-107.861-90.112-107.861zM513.365 901.291c-17.749 0-35.499-5.461-47.787-16.384l-238.933-197.973c-27.307-21.845-49.152-72.363-49.152-113.323v-516.096c0-30.037 15.019-66.901 49.152-66.901h570.709c34.133 0 49.152 38.229 49.152 66.901v516.096c0 40.96-21.845 91.477-47.787 113.323l-237.568 197.973c-12.288 9.557-28.672 16.384-47.787 16.384zM771.413 161.28c0-43.691-35.499-79.189-79.189-79.189h-361.813c-43.691 0-79.189 35.499-79.189 79.189v363.179c0 43.691 27.307 101.035 61.44 128.341l137.899 113.323c34.133 27.307 88.747 27.307 121.515 0l137.899-113.323c34.133-27.307 61.44-84.651 61.44-128.341v-363.179zM561.152 595.456c0 27.307-21.845 49.152-49.152 49.152s-49.152-21.845-49.152-49.152 21.845-49.152 49.152-49.152 49.152 21.845 49.152 49.152z" />
<glyph unicode="&#xe61f;" glyph-name="wishlist-unpicked" d="M512 916.309c5.461 0 9.557-1.365 12.288-4.096l322.219-267.605c8.192-6.827 12.288-23.211 12.288-34.133v-626.688c0-8.192 0-20.48-6.827-20.48h-682.667c-5.461 0-5.461 12.288-5.461 20.48v626.688c0 10.923 4.096 27.307 12.288 34.133l324.949 267.605c2.731 1.365 5.461 4.096 10.923 4.096zM512 929.963c-8.192 0-15.019-2.731-20.48-6.827l-323.584-267.605c-10.923-9.557-17.749-30.037-17.749-45.056v-626.688c0-15.019 5.461-34.133 20.48-34.133h682.667c15.019 0 20.48 19.115 20.48 34.133v626.688c0 15.019-6.827 35.499-17.749 45.056l-324.949 266.24c-5.461 5.461-10.923 8.192-19.115 8.192v0zM748.203 69.803h-472.405c-19.115 0-34.133 15.019-34.133 34.133v472.405c0 17.749 10.923 39.595 23.211 50.517l221.184 181.589c13.653 10.923 36.864 10.923 50.517 0l221.184-181.589c13.653-10.923 23.211-32.768 23.211-50.517v-472.405c1.365-19.115-13.653-34.133-32.768-34.133zM512 801.621c-6.827 0-12.288-1.365-16.384-5.461l-221.184-180.224c-9.557-8.192-19.115-25.941-19.115-39.595v-472.405c0-10.923 9.557-20.48 20.48-20.48h472.405c10.923 0 20.48 9.557 20.48 20.48v472.405c0 13.653-8.192 31.403-19.115 39.595l-221.184 180.224c-4.096 4.096-9.557 5.461-16.384 5.461zM561.152 595.456c0-27.146-22.006-49.152-49.152-49.152s-49.152 22.006-49.152 49.152c0 27.146 22.006 49.152 49.152 49.152s49.152-22.006 49.152-49.152z" />
<glyph unicode="&#xe620;" glyph-name="state-send" d="M1003.52 480.768l-382.293 458.752v-262.144c-382.293-65.536-546.133-393.216-600.747-720.896 136.533 229.376 327.68 334.507 600.747 334.507v-268.971l382.293 458.752z" />
<glyph unicode="&#xe621;" glyph-name="state-process" d="M512 939.52c-271.701 0-491.52-219.819-491.52-491.52s219.819-491.52 491.52-491.52 491.52 219.819 491.52 491.52-219.819 491.52-491.52 491.52zM512 12.459c-240.299 0-435.541 195.243-435.541 435.541s195.243 435.541 435.541 435.541 435.541-195.243 435.541-435.541-195.243-435.541-435.541-435.541zM727.723 452.096h-191.147v229.376c0 19.115-15.019 35.499-35.499 35.499-19.115 0-35.499-15.019-35.499-35.499v-264.875c0-19.115 15.019-35.499 35.499-35.499h226.645c19.115 0 35.499 15.019 35.499 35.499-1.365 20.48-16.384 35.499-35.499 35.499z" />
<glyph unicode="&#xe622;" glyph-name="state-confirm" d="M512 939.52c-271.701 0-491.52-219.819-491.52-491.52s219.819-491.52 491.52-491.52 491.52 219.819 491.52 491.52-219.819 491.52-491.52 491.52zM512 20.651c-234.837 0-427.349 191.147-427.349 427.349 0 234.837 191.147 427.349 427.349 427.349s427.349-191.147 427.349-427.349c0-234.837-192.512-427.349-427.349-427.349zM689.493 609.109l-252.587-253.952-102.4 102.4c-12.288 12.288-32.768 12.288-45.056 0s-12.288-32.768 0-45.056l125.611-125.611c6.827-6.827 15.019-9.557 23.211-9.557s16.384 2.731 23.211 9.557v0l275.797 275.797c12.288 12.288 12.288 32.768 0 45.056-15.019 13.653-34.133 13.653-47.787 1.365z" />
<glyph unicode="&#xe623;" glyph-name="order-form" d="M765.952 823.467c-17.749 0-42.325 19.115-42.325 35.499v54.613c0 16.384-2.731 19.115-20.48 19.115h-386.389c-16.384 0-43.691-2.731-43.691-19.115v-54.613c0-17.749-1.365-35.499-17.749-35.499h-32.768c-17.749 0-31.403-9.557-31.403-25.941v-143.36c0-17.749 15.019-34.133 31.403-34.133h574.805c17.749 0 20.48 17.749 20.48 34.133v143.36c0 17.749-4.096 25.941-20.48 25.941h-31.403zM912.043 741.547h-51.883v-158.379c0-10.923 8.192-19.115 0-19.115h-699.051c-8.192 0-24.576 8.192-24.576 19.115v158.379h-24.576c-16.384 0-43.691-8.192-43.691-30.037v-711.339c0-21.845 27.307-50.517 43.691-50.517h798.72c16.384 0 30.037 28.672 30.037 50.517v711.339c1.365 21.845-12.288 30.037-28.672 30.037zM860.16 86.187h-709.973v54.613h709.973v-54.613zM860.16 222.72h-709.973v54.613h709.973v-54.613zM860.16 359.253h-709.973v54.613h709.973v-54.613z" />
<glyph unicode="&#xe624;" glyph-name="message-lock" d="M614.4 463.019h-20.48v60.075c0 45.056-35.499 80.555-80.555 80.555s-80.555-35.499-80.555-80.555v-60.075h-20.48c-10.923 0-20.48-9.557-20.48-20.48v-140.629c0-10.923 9.557-20.48 20.48-20.48h202.069c10.923 0 20.48 9.557 20.48 20.48v141.995c0 10.923-9.557 19.115-20.48 19.115zM513.365 326.485c-20.48 0-35.499 16.384-35.499 35.499s16.384 35.499 35.499 35.499 35.499-16.384 35.499-35.499-15.019-35.499-35.499-35.499zM552.96 463.019h-80.555v60.075c0 21.845 17.749 40.96 40.96 40.96s40.96-17.749 40.96-40.96v-60.075zM914.773 714.24h-802.816c-17.749 0-30.037-4.096-30.037-20.48l273.067-212.992c5.461 9.557 13.653 21.845 13.653 28.672v6.827c0 75.093 64.171 133.803 136.533 133.803s136.533-58.709 136.533-133.803v-6.827c13.653-6.827 15.019-15.019 20.48-24.576l279.893 217.088v-2.731c0 16.384-10.923 15.019-27.307 15.019zM669.013 434.347v-116.053c0-46.421-23.211-81.92-65.536-81.92h-180.224c-42.325 0-81.92 35.499-81.92 81.92v116.053l-273.067 208.896v-446.464c0-16.384 25.941-28.672 43.691-28.672h802.816c16.384 0 27.307 12.288 27.307 28.672v446.464l-273.067-208.896z" />
</font>
</defs>
</svg>
