<svg xmlns="http://www.w3.org/2000/svg" viewBox="0 0 25.5 25.5"><defs><style>.cls-1{isolation:isolate;}.cls-2{opacity:0.22;mix-blend-mode:multiply;}.cls-3{fill:#f48536;}.cls-4{fill:#fff;}</style></defs><title>AMP_FullColor</title><g class="cls-1"><g id="menu_op1" data-name="menu op1"><g class="cls-2"><circle cx="12.5" cy="12.5" r="12.5"/><path d="M4742.56,169.17a3.37,3.37,0,0,1-3.36-3.34,2.18,2.18,0,0,0-2.81-2.06,2.21,2.21,0,0,0,.59,4.33,3.26,3.26,0,1,1,0,6.53,2.21,2.21,0,0,0,0,4.42,2.22,2.22,0,0,0,2.25-2.17,3.24,3.24,0,0,1,3.33-3.3,2.19,2.19,0,0,0,2.16-2.15A2.1,2.1,0,0,0,4742.56,169.17Z" transform="translate(-4725.83 -159.5)"/><path d="M4737.71,171.35a2.21,2.21,0,0,0-4.41,0A2.21,2.21,0,1,0,4737.71,171.35Z" transform="translate(-4725.83 -159.5)"/></g><circle class="cls-3" cx="13" cy="13" r="12.5"/><path class="cls-4" d="M4743.06,169.67a3.37,3.37,0,0,1-3.36-3.34,2.18,2.18,0,0,0-2.81-2.06,2.21,2.21,0,0,0,.59,4.33,3.26,3.26,0,1,1,0,6.53,2.21,2.21,0,0,0,0,4.42,2.22,2.22,0,0,0,2.25-2.17,3.24,3.24,0,0,1,3.33-3.3,2.19,2.19,0,0,0,2.16-2.15A2.1,2.1,0,0,0,4743.06,169.67Z" transform="translate(-4725.83 -159.5)"/><path class="cls-4" d="M4738.21,171.85a2.21,2.21,0,0,0-4.41,0A2.21,2.21,0,1,0,4738.21,171.85Z" transform="translate(-4725.83 -159.5)"/></g></g></svg>